<?xml version="1.0" encoding="UTF-8" standalone="no"?>
<!-- Generator: Adobe Illustrator 19.2.0, SVG Export Plug-In . SVG Version: 6.00 Build 0)  -->

<svg
   xmlns:dc="http://purl.org/dc/elements/1.1/"
   xmlns:cc="http://creativecommons.org/ns#"
   xmlns:rdf="http://www.w3.org/1999/02/22-rdf-syntax-ns#"
   xmlns:svg="http://www.w3.org/2000/svg"
   xmlns="http://www.w3.org/2000/svg"
   xmlns:sodipodi="http://sodipodi.sourceforge.net/DTD/sodipodi-0.dtd"
   xmlns:inkscape="http://www.inkscape.org/namespaces/inkscape"
   version="1.1"
   id="draw"
   x="0px"
   y="0px"
   viewBox="0 0 387.573 271.669"
   enable-background="new 0 0 387.573 271.669"
   xml:space="preserve"
   sodipodi:docname="Autogyro.svg"
   inkscape:version="0.92.3 (2405546, 2018-03-11)"><metadata
   id="metadata19"><rdf:RDF><cc:Work
       rdf:about=""><dc:format>image/svg+xml</dc:format><dc:type
         rdf:resource="http://purl.org/dc/dcmitype/StillImage" /><dc:title>Plane</dc:title></cc:Work></rdf:RDF></metadata><defs
   id="defs17" /><sodipodi:namedview
   pagecolor="#ffffff"
   bordercolor="#666666"
   borderopacity="1"
   objecttolerance="10"
   gridtolerance="10"
   guidetolerance="10"
   inkscape:pageopacity="0"
   inkscape:pageshadow="2"
   inkscape:window-width="1013"
   inkscape:window-height="1892"
   id="namedview15"
   showgrid="false"
   inkscape:zoom="1.7374083"
   inkscape:cx="160.87378"
   inkscape:cy="126.07043"
   inkscape:window-x="67"
   inkscape:window-y="0"
   inkscape:window-maximized="1"
   inkscape:current-layer="draw" />
<title
   id="title2">Plane</title>
<path
   fill="#4EC3E8"
   stroke="#000000"
   stroke-miterlimit="10"
   d="M193.786,271.168h59.055c-12.667-25.332-28.333-26-28.333-26h-23  l5.333-124.667c0,0,143-6.167,180-7.333c-17-42.167-70.667-43.833-70.667-43.833H211.341V32.002c0,0,0.663-31.681-15.167-31.5  h-4.776c-15.811,0.236-15.167,31.5-15.167,31.5v37.333H71.398c0,0-53.668,1.666-70.668,43.832c37,1.167,180,7.333,180,7.333  l5.333,124.667h-23c0,0-15.667,0.669-28.333,26L193.786,271.168"
   id="path4" />


<polygon
   fill="#159E1F"
   stroke="#000000"
   stroke-miterlimit="10"
   points="154.731,271.169 154.731,258.153 232.841,258.153   232.841,271.153 "
   id="polygon10" />
<polygon
   fill="#159E1F"
   stroke="#000000"
   stroke-miterlimit="10"
   points="196.228,270.987 191.395,270.987 189.395,245.32   198.228,245.32 "
   id="polygon12" />
<g
   style="opacity:0.8"
   id="g9800"
   transform="translate(113.37886,-20.70058)"><ellipse
     style="fill:#159e1f"
     transform="matrix(0.7091,-0.7051,0.7051,0.7091,-69.5206,95.5208)"
     cx="80.998001"
     cy="132.00999"
     rx="80.988998"
     ry="81.005997"
     id="ellipse9798" /></g><path
   style="fill:#ffffff;stroke:#000000;stroke-miterlimit:10"
   inkscape:connector-curvature="0"
   stroke-miterlimit="10"
   d="m 202.31986,102.41542 c -4.374,-4.384 -11.473,-4.393 -15.858,-0.02 -4.384,4.374 -4.393,11.473 -0.02,15.857 4.365,4.376 11.447,4.395 15.835,0.042 4.396,-4.335 4.446,-11.414 0.111,-15.811 -0.022,-0.022 -0.045,-0.045 -0.068,-0.068 z"
   id="path9802" /><path
   sodipodi:nodetypes="cccc"
   inkscape:connector-curvature="0"
   id="path7676"
   d="m 254.33734,140.92851 c 11.44643,-12.15033 13.42003,-19.85004 15.45523,-30.20517 l -19.37431,-0.19872 c 4.08702,6.5021 5.27551,17.47103 3.91908,30.40389 z"
   style="opacity:1;fill:#ffffff;fill-opacity:1;fill-rule:evenodd;stroke:none;stroke-width:1.58976662px;stroke-linecap:butt;stroke-linejoin:miter;stroke-opacity:1" /><path
   sodipodi:type="spiral"
   style="opacity:1;fill:none;fill-opacity:1;fill-rule:evenodd;stroke:#ffffec;stroke-width:2.51338577;stroke-linecap:butt;stroke-linejoin:miter;stroke-miterlimit:4;stroke-dasharray:none;stroke-opacity:1"
   id="path7711"
   sodipodi:cx="197.5222"
   sodipodi:cy="17.012539"
   sodipodi:expansion="0"
   sodipodi:revolution="8.0200005"
   sodipodi:radius="34.011444"
   sodipodi:argument="-17.855951"
   sodipodi:t0="0.99130303"
   d="m 223.94673,38.425681 c -3.13084,3.863564 -7.10954,7.019918 -11.58403,9.189766"
   transform="matrix(0.69323829,-1.4306567,1.4306567,0.69323829,44.980225,381.54018)" /><path
   style="opacity:1;fill:#ffffff;fill-opacity:1;fill-rule:evenodd;stroke:none;stroke-width:1.58976662px;stroke-linecap:butt;stroke-linejoin:miter;stroke-opacity:1"
   d="m 133.22559,81.59943 c -11.44643,12.15033 -13.42003,19.85003 -15.45524,30.20517 l 19.37431,0.19873 c -4.08701,-6.50211 -5.27551,-17.47103 -3.91907,-30.4039 z"
   id="path7831"
   inkscape:connector-curvature="0"
   sodipodi:nodetypes="cccc" /><path
   transform="matrix(-0.69323831,1.4306567,-1.4306567,-0.69323831,342.58271,-159.01222)"
   d="m 223.94673,38.425681 c -3.13084,3.863564 -7.10954,7.019918 -11.58403,9.189766"
   sodipodi:t0="0.99130303"
   sodipodi:argument="-17.855951"
   sodipodi:radius="34.011444"
   sodipodi:revolution="8.0200005"
   sodipodi:expansion="0"
   sodipodi:cy="17.012539"
   sodipodi:cx="197.5222"
   id="path7833"
   style="opacity:1;fill:none;fill-opacity:1;fill-rule:evenodd;stroke:#ffffec;stroke-width:2.51338577;stroke-linecap:butt;stroke-linejoin:miter;stroke-miterlimit:4;stroke-dasharray:none;stroke-opacity:1"
   sodipodi:type="spiral" /><g
   aria-label="1"
   style="font-style:normal;font-variant:normal;font-weight:normal;font-stretch:normal;font-size:52.99222565px;line-height:125%;font-family:sans-serif;-inkscape-font-specification:sans-serif;letter-spacing:0px;word-spacing:0px;fill:#ffffff;fill-opacity:1;stroke:none;stroke-width:1.58976662px;stroke-linecap:butt;stroke-linejoin:miter;stroke-opacity:1"
   id="text7999"
   transform="translate(113.37886,-20.70058)"><path
     inkscape:connector-curvature="0"
     d="m 81.956066,73.258968 h -8.31978 v -3.33851 q 5.405207,-0.688899 6.994974,-1.90772 1.589767,-1.165829 2.702603,-4.928277 0.105985,-0.317953 0.211969,-0.635907 h 3.073549 v 37.571486 h -4.663315 z"
     style="font-style:normal;font-variant:normal;font-weight:normal;font-stretch:normal;font-size:52.99222565px;font-family:FreeSans;-inkscape-font-specification:FreeSans;fill:#ffffff;fill-opacity:1;stroke-width:1.58976662px"
     id="path10409" /></g><g
   id="g293" /><g
   id="g298"
   transform="translate(270.77432,-269.762)"><path
     style="fill:#4ec3e8;stroke:#000000;stroke-linecap:round;stroke-linejoin:round"
     inkscape:connector-curvature="0"
     d="m 36.236114,589.61454 c 4.938,0 4.463,-6.183 4.463,-6.183 v -34.2 c 0,0 33.037,4 39.287,4 2.055,0.213 3.892,-1.281 4.105,-3.335 0.03,-0.29 0.026,-0.583 -0.012,-0.872 v -14.34 c 0,-3.343 -4.093,-3.093 -4.093,-3.093 l -39.283,-4 v -62.562 c 0,-16.083 1.7,-16.817 2.977,-19.049 0.843,-1.477 27.941,-30.738 27.941,-30.738 v -109.213 c 0,-47.25 -40.385,-47.259 -40.385,-47.259 0,0 -40.385,0.009 -40.385,47.259 v 109.213 c 0,0 27.1,29.262 27.941,30.738 1.274,2.232 2.977,2.966 2.977,19.049 v 62.562 l -39.283,4 c 0,0 -4.093,-0.249 -4.093,3.093 v 14.345 c -0.269,2.048 1.173,3.926 3.221,4.195 0.289,0.038 0.582,0.042 0.872,0.012 6.25,0 39.287,-4 39.287,-4 v 34.2 c 0,0 -0.475,6.183 4.463,6.183 h 10 z"
     id="path11108" /><path
     id="path11110"
     d="m 62.907114,295.34754 c 0,-28.669 -31.67,-28.675 -31.67,-28.675 0,0 -31.67,0.005 -31.67,28.675 h 63.341 z"
     stroke-miterlimit="10"
     inkscape:connector-curvature="0"
     style="fill:#ffffff;stroke:#000000;stroke-miterlimit:10" /></g><g
   style="opacity:0.8"
   transform="translate(208.51587,268.7338)"
   id="g11698"><ellipse
     style="fill:#4ec3e8"
     id="ellipse11696"
     ry="81.005997"
     rx="80.988998"
     cy="162.01199"
     cx="80.999001"
     transform="matrix(0.7091,-0.7051,0.7051,0.7091,-90.676,104.2502)" /></g><path
   style="fill:#ffffff;stroke:#000000;stroke-miterlimit:10"
   inkscape:connector-curvature="0"
   stroke-miterlimit="10"
   d="m 296.45987,422.252 c -4.374,-4.384 -11.473,-4.393 -15.858,-0.02 -4.384,4.374 -4.393,11.473 -0.02,15.857 4.365,4.376 11.447,4.395 15.835,0.042 4.396,-4.335 4.446,-11.414 0.111,-15.811 -0.022,-0.022 -0.045,-0.045 -0.068,-0.068 z"
   id="path11120" /><path
   sodipodi:nodetypes="cccc"
   inkscape:connector-curvature="0"
   id="path7676-7"
   d="m 57.502474,497.65937 c 16.6811,-0.49761 23.51936,-4.54552 32.2784,-10.42708 l -13.55568,-13.83663 c -1.70727,7.4857 -8.62129,16.08006 -18.72272,24.26371 z"
   style="opacity:1;fill:#ffffff;fill-opacity:1;fill-rule:evenodd;stroke:none;stroke-width:1.58935368px;stroke-linecap:butt;stroke-linejoin:miter;stroke-opacity:1" /><path
   sodipodi:type="spiral"
   style="opacity:1;fill:none;fill-opacity:1;fill-rule:evenodd;stroke:#ffffec;stroke-width:2.51338577;stroke-linecap:butt;stroke-linejoin:miter;stroke-miterlimit:4;stroke-dasharray:none;stroke-opacity:1"
   id="path7711-5"
   sodipodi:cx="197.5222"
   sodipodi:cy="17.012539"
   sodipodi:expansion="0"
   sodipodi:revolution="8.0200005"
   sodipodi:radius="34.011444"
   sodipodi:argument="-17.855951"
   sodipodi:t0="0.99130303"
   d="m 223.94673,38.425681 c -3.13084,3.863564 -7.10954,7.019918 -11.58403,9.189766"
   transform="matrix(1.5014305,-0.52129812,0.52129812,1.5014305,-260.59085,519.75394)" /><path
   style="opacity:1;fill:#ffffff;fill-opacity:1;fill-rule:evenodd;stroke:none;stroke-width:1.58935368px;stroke-linecap:butt;stroke-linejoin:miter;stroke-opacity:1"
   d="m -33.208739,456.61545 c 0.497606,16.6811 4.545505,23.51936 10.427067,32.27839 l 13.83663,-13.55567 c -7.4857,-1.70728 -16.080049,-8.62128 -24.263697,-18.72272 z"
   id="path7831-3"
   inkscape:connector-curvature="0"
   sodipodi:nodetypes="cccc" /><path
   transform="matrix(0.5212981,1.5014305,-1.5014305,0.5212981,-55.303296,138.52211)"
   d="m 223.94673,38.425681 c -3.13084,3.863564 -7.10954,7.019918 -11.58403,9.189766"
   sodipodi:t0="0.99130303"
   sodipodi:argument="-17.855951"
   sodipodi:radius="34.011444"
   sodipodi:revolution="8.0200005"
   sodipodi:expansion="0"
   sodipodi:cy="17.012539"
   sodipodi:cx="197.5222"
   id="path7833-5"
   style="opacity:1;fill:none;fill-opacity:1;fill-rule:evenodd;stroke:#ffffec;stroke-width:2.51338577;stroke-linecap:butt;stroke-linejoin:miter;stroke-miterlimit:4;stroke-dasharray:none;stroke-opacity:1"
   sodipodi:type="spiral" /><g
   aria-label="4"
   style="font-style:normal;font-variant:normal;font-weight:normal;font-stretch:normal;font-size:52.97846222px;line-height:125%;font-family:sans-serif;-inkscape-font-specification:sans-serif;letter-spacing:0px;word-spacing:0px;fill:#ffffff;fill-opacity:1;stroke:none;stroke-width:1.58935368px;stroke-linecap:butt;stroke-linejoin:miter;stroke-opacity:1"
   id="text11694"
   transform="translate(-48.763886,258.27054)"><path
     inkscape:connector-curvature="0"
     d="M 83.040373,244.57987 H 67.199812 v -4.92699 l 17.059065,-23.6284 h 3.4436 v 24.3701 h 5.562739 v 4.18529 h -5.562739 v 9.00634 h -4.662104 z m 0,-4.18529 v -16.42333 l -11.761219,16.42333 z"
     style="font-style:normal;font-variant:normal;font-weight:normal;font-stretch:normal;font-size:52.97846222px;font-family:FreeSans;-inkscape-font-specification:FreeSans;fill:#ffffff;fill-opacity:1;stroke-width:1.58935368px"
     id="path11778" /></g><path
   style="opacity:1;fill:#ffffff;fill-opacity:1;fill-rule:evenodd;stroke:none;stroke-width:1.58935297px;stroke-linecap:butt;stroke-linejoin:miter;stroke-opacity:1"
   d="m 229.00581,463.38983 c -11.44345,-12.14717 -13.41654,-19.84485 -15.45121,-30.1973 l 19.36927,-0.19867 c -4.08596,6.50042 -5.27414,17.46648 -3.91806,30.39597 z"
   id="path7870"
   inkscape:connector-curvature="0"
   sodipodi:nodetypes="cccc" /><path
   transform="matrix(-0.69305791,-1.4302844,-1.4302844,0.69305791,438.30847,703.93889)"
   d="m 223.94673,38.425681 c -3.13084,3.863564 -7.10954,7.019918 -11.58403,9.189766"
   sodipodi:t0="0.99130303"
   sodipodi:argument="-17.855951"
   sodipodi:radius="34.011444"
   sodipodi:revolution="8.0200005"
   sodipodi:expansion="0"
   sodipodi:cy="17.012539"
   sodipodi:cx="197.5222"
   id="path7872"
   style="opacity:1;fill:none;fill-opacity:1;fill-rule:evenodd;stroke:#ffffec;stroke-width:2.51338577;stroke-linecap:butt;stroke-linejoin:miter;stroke-miterlimit:4;stroke-dasharray:none;stroke-opacity:1"
   sodipodi:type="spiral" /><path
   sodipodi:nodetypes="cccc"
   inkscape:connector-curvature="0"
   id="path7874"
   d="m 350.08604,404.0762 c 11.44345,12.14717 13.41654,19.84487 15.45121,30.19731 l -19.36927,0.19867 c 4.08596,-6.50041 5.27415,-17.46648 3.91806,-30.39598 z"
   style="opacity:1;fill:#ffffff;fill-opacity:1;fill-rule:evenodd;stroke:none;stroke-width:1.58935297px;stroke-linecap:butt;stroke-linejoin:miter;stroke-opacity:1" /><path
   sodipodi:type="spiral"
   style="opacity:1;fill:none;fill-opacity:1;fill-rule:evenodd;stroke:#ffffec;stroke-width:2.51338577;stroke-linecap:butt;stroke-linejoin:miter;stroke-miterlimit:4;stroke-dasharray:none;stroke-opacity:1"
   id="path7876"
   sodipodi:cx="197.5222"
   sodipodi:cy="17.012539"
   sodipodi:expansion="0"
   sodipodi:revolution="8.0200005"
   sodipodi:radius="34.011444"
   sodipodi:argument="-17.855951"
   sodipodi:t0="0.99130303"
   d="m 223.94673,38.425681 c -3.13084,3.863564 -7.10954,7.019918 -11.58403,9.189766"
   transform="matrix(0.69305792,1.4302844,1.4302844,-0.69305792,140.78342,163.52716)" /><g
   aria-label="1"
   style="font-style:normal;font-variant:normal;font-weight:normal;font-stretch:normal;font-size:52.99222565px;line-height:125%;font-family:sans-serif;-inkscape-font-specification:sans-serif;letter-spacing:0px;word-spacing:0px;fill:#ffffff;fill-opacity:1;stroke:none;stroke-width:1.58976662px;stroke-linecap:butt;stroke-linejoin:miter;stroke-opacity:1"
   id="text7999-2"
   transform="translate(207.65713,299.793)"><path
     inkscape:connector-curvature="0"
     d="m 81.956066,73.258968 h -8.31978 v -3.33851 q 5.405207,-0.688899 6.994974,-1.90772 1.589767,-1.165829 2.702603,-4.928277 0.105985,-0.317953 0.211969,-0.635907 h 3.073549 v 37.571486 h -4.663315 z"
     style="font-style:normal;font-variant:normal;font-weight:normal;font-stretch:normal;font-size:52.99222565px;font-family:FreeSans;-inkscape-font-specification:FreeSans;fill:#ffffff;fill-opacity:1;stroke-width:1.58976662px"
     id="path10409-9" /></g></svg>